<?xml version="1.0" encoding="UTF-8"?>
<svg id="Layer_1" data-name="Layer 1" xmlns="http://www.w3.org/2000/svg" viewBox="0 0 769.87 272.06">
  <defs>
    <style>
      .cls-1 {
        fill: #fff;
      }

      .cls-1, .cls-2 {
        stroke-width: 0px;
      }

      .cls-2 {
        fill: #27aee4;
      }
    </style>
  </defs>
  <g>
    <path class="cls-1" d="m598.55,142.55c3.62-17.27,7.06-33.66,10.49-50.04.99-4.75,2.15-9.47,2.89-14.26,1.38-8.89-2.59-13.64-11.63-13.52-10.69.13-19.22,5.59-26.99,12.28-1.18,1.01-1.5,3.23-1.85,4.96-3.83,18.6-7.67,37.2-11.29,55.84-.71,3.67-2.23,5.01-6.02,4.86-7.23-.29-14.49-.08-22.57-.08,2.24-10.44,4.44-20.39,6.52-30.36,4.5-21.56,9.04-43.11,13.34-64.71.88-4.42,2.48-6.08,7.25-5.43,4.96.67,10.07.15,15.86.15v11.6c8.91-3.39,17.05-7.64,25.7-9.43,7.67-1.58,16.12-1.63,23.83-.19,9.68,1.81,15.93,10.29,16.08,20.29.1,7.19-.86,14.5-2.23,21.59-3.37,17.45-7.37,34.78-10.83,52.21-.65,3.27-1.76,4.4-5.05,4.31-7.62-.21-15.26-.07-23.49-.07Z"/>
    <path class="cls-1" d="m509.23,142.18h-30.23c9.62-45.98,19.14-91.44,28.71-137.15h29.57c-9.38,45.85-18.7,91.44-28.05,137.15Z"/>
    <path class="cls-1" d="m646.34,142.89c9.73-46.03,19.27-91.19,28.79-136.24h26.88c-3.78,18.07-7.43,35.6-11.1,53.13-5.51,26.27-11.12,52.52-16.44,78.83-.66,3.27-1.73,4.42-5.01,4.34-7.44-.19-14.89-.06-23.11-.06Z"/>
    <path class="cls-1" d="m769.87,44.09c-16.82,15.33-33.63,30.66-50.15,45.71,10.87,17.38,21.53,34.42,33.11,52.92-11.52,0-21.67.07-31.82-.11-1.06-.02-2.44-1.31-3.09-2.37-8.95-14.42-17.82-28.9-26.68-43.38-2.8-4.58-1.07-8.81,1.86-12.29,4.81-5.71,9.93-11.2,15.28-16.42,8.1-7.91,16.48-15.54,24.83-23.18,1.24-1.13,2.99-2.36,4.53-2.39,10.47-.21,20.95-.11,31.42-.11.23.54.47,1.08.7,1.62Z"/>
  </g>
  <g>
    <g>
      <path class="cls-2" d="m243.68,200.76c22.82,0,45.66-.65,68.44.18,22.56.83,45.07,3.15,66.71,4.75-11.36-8.29-95.49-20.56-143.76-21.01-49.24-.46-98.08,2.88-146.61,12.25,7.38-2.33,14.69-4.93,22.16-6.93,14.38-3.85,28.72-8.04,43.32-10.84,22.58-4.32,45.24-9.17,68.09-10.91,31.4-2.38,63.03-3.19,94.52-2.55,25.58.52,51.2,3.4,76.62,6.66,25.19,3.23,50.22,7.94,75.21,12.59,22.39,4.17,44.52,9.83,66.97,13.59,42.21,7.08,84.45,15.2,127.62,10.45,15.94-1.76,31.16-6.42,45.09-14.68,1.21-.72,2.31-1.63,3.4-2.53.43-.36.68-.94,1.8-2.55-43.41,14.78-85.77,11.31-128.05-.39,8.55.39,17.11.66,25.65,1.21,27.47,1.76,54.61-.94,81.05-8.14,20.88-5.69,39.96-11.8,61.8-33.83,4.73,12.46,3.25,24.78-.51,36.81-11.65,37.25-38.58,59.4-73.74,72.6-30.47,11.44-62.41,12.85-94.4,10.47-22.11-1.64-44.3-4.06-66.04-8.26-25.81-4.98-51.17-12.24-76.73-18.51.16-.72.32-1.43.47-2.15,15.53,2.22,31.02,4.74,46.59,6.57,15.64,1.83,31.34,3.54,47.07,4.26,15.9.72,31.85.16,47.75-.98-17.34-1.93-34.72-3.59-52.02-5.87-18.21-2.41-36.38-5.17-54.49-8.23-20.69-3.5-41.29-7.54-61.94-11.25-15.49-2.78-30.95-5.72-46.51-8.02-21.77-3.22-43.56-6.38-65.44-8.68-19.89-2.09-39.9-3-59.86-4.44-.07-.55-.15-1.09-.22-1.64Z"/>
      <g>
        <path class="cls-2" d="m134.5,6.74c-1.78,10.01-3.29,18.49-4.97,27.94-6.91-1.26-13.51-3.1-20.2-3.56-14.48-1-29.04-2.15-43.51-1.57-9.19.37-17.53,4.69-20.83,14.82-3.49,10.68,1.33,18.16,12.67,18.55,6.44.22,12.96-1.34,19.35-.87,9.55.71,19.4,1.34,28.43,4.18,9.67,3.04,14.75,11.07,15.56,21.69,2.24,29.46-20.12,55.12-49.72,55.39-22.78.21-45.57-1.08-68.98-1.72,1.64-9.49,2.91-17.79,4.72-25.97.22-.98,3.39-2.04,5.06-1.86,16.63,1.77,33.21,4.17,49.87,5.53,5.41.44,11.26-.94,16.5-2.7,7.47-2.5,11.38-8.76,12.87-16.27,1.31-6.6-3.26-12.43-10.43-12.77-8.87-.42-17.83.58-26.66-.17-8.11-.69-16.43-1.94-24.03-4.67-10.77-3.87-15.57-13-15.96-24.19-.86-24.62,14.87-44.85,38.58-51.35,11.35-3.11,22.57-3.73,34.15-2.94,15.48,1.07,30.98,1.65,47.52,2.5Z"/>
        <path class="cls-2" d="m209.53,75.67c-5.32,10.53-10.58,21.08-15.96,31.57-4.78,9.3-9.77,18.49-14.53,27.81-2.94,5.76-7.1,9.17-13.92,8.5-1.6-.16-3.23.06-4.85.1-11.51.29-11.67.28-12.56-11.36-2.19-28.45-4.24-56.9-6.33-85.36-.12-1.58-.02-3.18-.02-5.29h25.1c1,21.65,2,43.29,3,64.93.47.1.93.2,1.4.29,5.96-11.51,11.87-23.04,17.89-34.52,4.77-9.09,9.75-18.06,14.48-27.16,2.19-4.21,5.17-6.5,10.1-5.83,1.58.22,3.23-.03,4.85-.04,13.06-.14,12.71-.09,14.14,13.22,1.81,16.89,4.26,33.71,6.47,50.55.18,1.35.67,2.66,1.37,5.34,4.93-10.76,9.4-20.33,13.72-29.97,5.1-11.39,10-22.87,15.19-34.22.6-1.32,2.5-2.84,3.84-2.88,7.63-.28,15.27-.13,24.55-.13-3.48,6.85-6.31,12.5-9.22,18.12-13.5,26.1-27.08,52.16-40.47,78.31-2.33,4.54-5.54,6.6-10.57,6.14-2.21-.2-4.45-.05-6.67-.01-11.12.2-11.44-.28-12.62-11.64-1.73-16.69-3.72-33.35-5.67-50.02-.25-2.11-.88-4.18-1.33-6.26-.47-.06-.94-.12-1.41-.18Z"/>
        <path class="cls-2" d="m385.14,63.14c-2.46,11.73-4.81,22.97-7.17,34.21-2.86,13.61-5.78,27.21-8.54,40.84-.69,3.42-2.45,4.62-5.86,4.54-7.01-.18-14.04-.05-21.86-.05,5.34-26.71,10.49-52.48,15.73-78.69-3.53-.46-6.43-.83-10.22-1.32,1.44-5.81,2.54-11.3,4.28-16.58.41-1.26,2.92-2.57,4.47-2.58,4.65-.03,6.65-1.88,7.62-6.56,4.52-21.66,18.8-32.32,41.04-34.08,7.88-.63,15.92.8,24.77,1.34-1.32,7.64-2.17,14-3.71,20.19-.28,1.12-3.39,2.1-5.22,2.14-6.01.14-12.13-.94-18.02-.15-8.87,1.18-11.73,4.96-12.82,14.8h27.36c-1.82,7.86-3.42,14.78-5.09,21.96h-26.76Z"/>
        <path class="cls-2" d="m477.5,63.21c-7.71,0-14.57-.19-21.42.13-1.7.08-4.5,1.57-4.79,2.85-2.92,13.17-5.76,26.39-7.95,39.7-1.67,10.12,2.42,14.56,12.76,15.27,2.98.2,5.96.3,10.07.5-1.34,6.65-2.46,12.69-3.85,18.65-.21.88-1.73,2.14-2.57,2.09-11.61-.69-23.56-.15-34.71-2.86-9.69-2.35-13.34-11.55-11.56-22.56,1.93-11.95,4.37-23.81,6.72-35.69,3.72-18.8,7.8-37.53,11.21-56.38,1.09-6.03,3.1-9.28,9.63-7.91.58.12,1.21.03,1.81.04q14.11.23,12.56,14.45c-.11,1-.19,2.03-.45,3-1.54,5.66.6,7.7,6.36,7.32,5.63-.37,11.33-.27,16.95.18,1.29.1,3.59,2.68,3.4,3.77-1,5.74-2.64,11.36-4.16,17.44Z"/>
        <path class="cls-2" d="m335.69,41.56c-3.15,16.39-5.93,31.67-9.05,46.87-3.33,16.2-7.2,32.3-10.36,48.53-.96,4.95-3.15,6.09-7.74,5.82-6.59-.38-13.21-.1-20.51-.1,1.18-6.5,2.09-12.23,3.28-17.89,5.46-26.06,11.04-52.09,16.43-78.17.73-3.54,2.04-5.28,5.94-5.14,7.03.25,14.07.07,22,.07Z"/>
      </g>
    </g>
    <path class="cls-2" d="m311.87,25.01c1.32-6.82,2.53-13.05,3.83-19.78h26.98c-1.28,6.65-2.52,13.07-3.81,19.78h-27Z"/>
  </g>
</svg>